HIERARCHY
ROOT Hips
{
  OFFSET 17.3259 41.07 -5.49132
  CHANNELS 6 Xposition Yposition Zposition Zrotation Xrotation Yrotation
  JOINT LeftHip
  {
    OFFSET 3.43 0 -8.88178e-016
    CHANNELS 3 Zrotation Xrotation Yrotation
    JOINT LeftKnee
    {
      OFFSET 3.55271e-014 -18.47 9.76996e-014
      CHANNELS 3 Zrotation Xrotation Yrotation
      JOINT LeftAnkle
      {
        OFFSET 1.28964e-012 -17.95 5.57776e-013
        CHANNELS 3 Zrotation Xrotation Yrotation
        End Site
        {
          OFFSET 0 -3.12 0
        }
      }
    }
  }
  JOINT RightHip
  {
    OFFSET -3.43 -7.10543e-015 2.22045e-015
    CHANNELS 3 Zrotation Xrotation Yrotation
    JOINT RightKnee
    {
      OFFSET -2.4869e-014 -18.47 -1.95399e-014
      CHANNELS 3 Zrotation Xrotation Yrotation
      JOINT RightAnkle
      {
        OFFSET -1.00542e-012 -17.95 -9.87654e-013
        CHANNELS 3 Zrotation Xrotation Yrotation
        End Site
        {
          OFFSET 0 -3.12 0
        }
      }
    }
  }
  JOINT Chest
  {
    OFFSET -1.77636e-014 4.57 4.44089e-016
    CHANNELS 3 Zrotation Xrotation Yrotation
    JOINT Chest2
    {
      OFFSET 0 6.57 6.66134e-016
      CHANNELS 3 Zrotation Xrotation Yrotation
      JOINT LeftCollar
      {
        OFFSET 1.06 4.19 1.76
        CHANNELS 3 Zrotation Xrotation Yrotation
        JOINT LeftShoulder
        {
          OFFSET 5.81 7.10543e-015 -9.32587e-015
          CHANNELS 3 Zrotation Xrotation Yrotation
          JOINT LeftElbow
          {
            OFFSET 9.23706e-014 -12.08 3.90799e-014
            CHANNELS 3 Zrotation Xrotation Yrotation
            JOINT LeftWrist
            {
              OFFSET -2.91323e-013 -9.82 3.16192e-013
              CHANNELS 3 Zrotation Xrotation Yrotation
              End Site
              {
                OFFSET 0 -7.37 0
              }
            }
          }
        }
      }
      JOINT RightCollar
      {
        OFFSET -1.06 4.19 1.76
        CHANNELS 3 Zrotation Xrotation Yrotation
        JOINT RightShoulder
        {
          OFFSET -6.06 1.42109e-014 -7.10543e-015
          CHANNELS 3 Zrotation Xrotation Yrotation
          JOINT RightElbow
          {
            OFFSET -1.63425e-013 -11.08 1.18128e-013
            CHANNELS 3 Zrotation Xrotation Yrotation
            JOINT RightWrist
            {
              OFFSET 1.20792e-013 -9.82 3.71259e-013
              CHANNELS 3 Zrotation Xrotation Yrotation
              End Site
              {
                OFFSET 0 -7.14001 0
              }
            }
          }
        }
      }
      JOINT Neck
      {
        OFFSET -3.55271e-015 4.05 -1.66533e-014
        CHANNELS 3 Zrotation Xrotation Yrotation
        JOINT Head
        {
          OFFSET 3.55271e-015 5.19 -4.44089e-014
          CHANNELS 3 Zrotation Xrotation Yrotation
          End Site
          {
            OFFSET 0 4.14001 0
          }
        }
      }
    }
  }
}
MOTION
Frames:	9
Frame Time:	0.0333333
-39.8278 40.6327 44.4911 4.35608 1.28536 135.926 6.17471 -5.88711 9.10403 7.96783 58.1087 -9.33403 -4.02309 22.1252 0.786883 4.74622 -4.12974 -1.03902 1.84087 5.67699 -18.6345 -2.36924 2.64161 0.054634 2.13228 5.46895 -0.97047 4.94698 5.60898 -0.96024 -11.1516 1.67589 -11.7704 31.9528 -0.209593 -26.5466 -14.3846 -47.5163 -10.7103 10.9938 12.5811 -22.6217 11.084 1.88222 11.2657 -30.464 22.9879 15.4842 8.20835 -31.9705 4.36768 -6.76382 6.39701 22.3514 1.15931 -7.50323 -2.38764 -1.33571 -10.5283 -2.02433 
-39.1844 40.8469 43.7275 3.54949 2.24688 135.267 5.07233 -9.91851 9.30966 6.28591 59.5999 -2.81918 -1.88802 17.1291 0.284366 3.72739 -2.50542 -1.36881 1.04809 5.9288 -16.6021 -2.35129 1.69475 0.0347818 1.28019 5.65381 -0.0882729 3.90812 5.9507 0.288072 -10.8695 1.65989 -11.8674 32.5609 1.28077 -26.7675 -14.6069 -46.6093 -10.7238 10.1356 11.7805 -23.3945 11.047 1.87274 11.2252 -30.9322 19.4681 16.3781 7.97179 -35.4747 4.64625 -6.27745 6.16522 22.2046 1.73469 -7.45874 -2.92132 -1.83817 -10.5548 -2.60899 
-38.5323 40.9361 42.9711 3.00275 2.97031 134.079 4.40546 -12.9406 9.69847 3.39347 57.756 3.94859 -0.275529 12.4265 0.0299964 2.8725 -0.435139 -1.96162 0.694324 5.03367 -15.2441 -2.29924 0.912253 0.0183069 0.705092 5.73051 0.836804 2.94169 6.11844 1.59337 -10.8113 1.64069 -11.7745 33.3377 3.47071 -26.6653 -14.6759 -46.4197 -10.7425 11.0262 11.9702 -23.3911 10.5645 1.78497 10.9391 -30.7606 15.3037 17.0196 7.81538 -38.1413 4.84538 -6.30826 6.10745 22.9432 1.94129 -7.15062 -3.27486 -2.01713 -10.0489 -3.03276 
-37.8668 41.0293 42.1643 2.71154 3.68344 133.578 3.52737 -14.9571 9.26119 1.74218 52.8806 9.48558 1.14034 7.49578 -0.0747023 2.06651 2.13846 -2.80575 0.704625 3.79888 -14.3092 -2.28507 0.517855 0.010328 0.162567 5.86163 1.41988 2.29213 6.36409 2.29021 -10.5998 1.61521 -11.7509 33.5811 5.76338 -25.9605 -14.3933 -45.9117 -10.4441 12.2196 12.2126 -23.1837 10.3314 1.73279 10.7222 -31.1429 11.479 18.0992 7.66581 -40.5761 5.0035 -7.22063 5.99959 23.0997 2.26447 -7.00435 -3.53996 -2.45033 -9.62308 -3.2847 
-37.3153 41.0869 41.4429 2.16387 3.55966 132.251 3.26968 -16.3037 8.93845 -0.381868 44.0429 12.8818 1.87553 4.40381 -0.0721195 1.51479 2.70961 -3.09537 0.409442 4.04953 -13.0043 -2.16635 0.488517 0.00923656 -0.0372444 5.69389 2.21917 1.68541 6.17291 3.37628 -10.5878 1.62257 -11.8132 33.9493 7.93921 -25.1619 -14.0249 -45.2881 -10.066 12.5488 12.2979 -23.0296 10.2728 1.71052 10.5989 -31.7416 7.74557 18.7818 7.47872 -43.47 5.16059 -7.6489 5.76249 21.9125 2.52687 -6.83848 -3.68638 -2.82617 -9.40765 -3.38064 
-36.7271 41.1432 40.6687 2.05188 3.50867 131.901 2.57279 -15.6425 7.623 -0.548166 31.0197 12.545 2.139 2.5318 -0.0472727 1.25349 3.73307 -3.44953 0.248961 4.54408 -13.6065 -2.62462 -1.04479 -0.0239347 -0.197207 5.74057 2.4582 1.44942 6.25317 3.46554 -10.5939 1.61684 -11.7671 34.0267 9.62626 -24.4822 -13.7619 -44.2349 -9.69566 13.063 12.0133 -23.1434 10.4032 1.73984 10.7236 -32.7498 4.7954 20.0825 7.11187 -46.104 5.13748 -9.99528 5.8498 22.4979 2.83456 -7.08699 -3.65079 -2.75721 -9.32275 -3.32088 
-36.0733 40.9767 39.8401 3.58062 2.31199 131.287 3.06831 -13.788 5.65351 0.185447 18.2495 7.92837 1.26738 4.71106 -0.0521359 1.98325 4.22116 -3.91512 0.305836 7.02539 -12.2427 -2.67075 -2.30475 -0.0537331 1.75314 5.84986 2.71833 1.80756 6.38003 3.4757 -10.7009 1.64265 -11.8718 33.4105 11.205 -24.3581 -13.7125 -43.3311 -9.50538 13.9901 12.9571 -24.4288 10.7598 1.8057 10.9511 -34.9305 3.02123 20.7356 6.82213 -48.9965 5.15893 -10.7919 4.38067 21.8574 2.69246 -7.13411 -3.82157 -2.9719 -9.12264 -3.17966 
-35.3955 40.7638 38.9662 5.35502 1.82696 131.223 3.76263 -12.4581 4.35792 0.691226 13.2683 6.45943 0.241385 7.6332 -0.016103 2.76201 4.49087 -4.55681 0.147055 11.5905 -12.5193 -2.84065 -3.68418 -0.0913785 3.006 6.21391 2.50497 2.31624 6.70515 3.01714 -9.91785 1.56911 -11.9423 31.9358 11.9343 -23.8378 -13.4002 -42.0369 -9.06376 11.7401 13.2672 -23.1622 10.143 1.68264 10.4822 -35.53 0.291628 21.7185 6.47016 -50.8451 5.02574 -9.91592 4.35674 21.6838 2.75032 -6.76767 -3.92543 -2.62232 -9.69664 -3.08744 
-34.7241 40.4557 38.0988 6.46134 2.48824 131.701 3.70442 -11.4353 5.63508 0.104472 15.1493 9.68074 1.53553 3.84187 -0.0515035 2.69473 6.61971 -6.11545 -0.134557 14.2062 -11.9963 0.0694712 -6.28636 0.00381494 2.71256 6.58944 1.81191 2.29181 7.24754 2.20578 -10.3183 1.62071 -12.0083 32.3524 12.7411 -23.8155 -13.4899 -41.7129 -9.06924 10.851 14.2163 -22.9945 10.3565 1.73016 10.6852 -36.2839 -1.51934 22.5711 6.41764 -51.91 5.059 -9.72481 2.80781 22.3681 3.24249 -6.58723 -3.72562 -1.97222 -9.38616 -2.89081 
